<svg xmlns="http://www.w3.org/2000/svg" viewBox="0 0 1000 1000"><g id="eb17dd42-c1a4-478c-9b7b-96a3ff0eef33" data-name="Background"><circle cx="500" cy="500" r="500" fill="none"/></g><g id="ecc230e3-929d-45e2-9fc7-016af4dc40ee" data-name="Layer 13"><path d="M499.99245,991.54783A339.45448,339.45448,0,0,1,258.38,891.46935a11.20191,11.20191,0,0,1-3.30158-7.97108V720.57578a11.27248,11.27248,0,0,1,19.24328-7.97109,319.22675,319.22675,0,0,0,534.299-144.211,318.81857,318.81857,0,0,0-82.957-144.20809L499.99245,198.51441,274.32169,424.18565a11.27283,11.27283,0,0,1-19.24376-7.97109v-162.922a11.20026,11.20026,0,0,1,3.30158-7.97109L492.76611,10.93535l.5935-.38338c.1479-.10674.27952-.19624.39056-.27043.09142-.0603.191-.1254.29962-.19336l.6002-.42359,1.05538-.43938a10.00327,10.00327,0,0,1,1.44355-.46906,10.79329,10.79329,0,0,1,2.844-.36424,11.004,11.004,0,0,1,1.64266.11631,10.16381,10.16381,0,0,1,1.21954.25272,9.949,9.949,0,0,1,1.46078.47911l.95151.39534.56957.39009c.15125.09333.28431.18.39439.25367.09286.06174.19911.134.31781.21778l.6002.37668.81463.80649L741.60587,245.32147a341.50225,341.50225,0,0,1,90.27328,323.07227A341.50241,341.50241,0,0,1,741.60587,891.4684,339.45612,339.45612,0,0,1,499.99245,991.54783Zm-222.3687-112.765A319.23488,319.23488,0,0,0,808.45313,731.96333a321.57715,321.57715,0,0,0,8.691-117.71979A341.7809,341.7809,0,0,1,277.62375,746.394ZM741.60587,408.24347A342.46948,342.46948,0,0,1,817.14408,522.5449a318.62836,318.62836,0,0,0-91.48039-261.28173L511.2656,46.86556V177.90369Zm-463.9826-19.24328,211.09651-211.0965V46.86556l-211.09651,211.096Z" transform="translate(0 0.03013)" fill="#1d1d1b"/></g></svg>